<svg width="1366" height="667" xmlns="http://www.w3.org/2000/svg"><g><path d="M-21,-107L-122,116L83,45Z" fill="#fbfeca" stroke="#fbfeca"/><path d="M-21,-107L83,45L111,-18Z" fill="#f7fccc" stroke="#f7fccc"/><path d="M-21,-107L111,-18L165,-60Z" fill="#f4fbce" stroke="#f4fbce"/><path d="M-21,-107L165,-60L402,-113Z" fill="#ecf8ce" stroke="#ecf8ce"/><path d="M-21,-107L402,-113L492,-123Z" fill="#e4f4cb" stroke="#e4f4cb"/><path d="M111,-18L83,45L212,86Z" fill="#ecf9c0" stroke="#ecf9c0"/><path d="M111,-18L212,86L165,-60Z" fill="#eef8c3" stroke="#eef8c3"/><path d="M165,-60L212,86L316,50Z" fill="#e5f6bd" stroke="#e5f6bd"/><path d="M165,-60L316,50L402,-113Z" fill="#e3f4c2" stroke="#e3f4c2"/><path d="M402,-113L316,50L550,102Z" fill="#d7efb6" stroke="#d7efb6"/><path d="M402,-113L550,102L492,-123Z" fill="#d3edb9" stroke="#d3edb9"/><path d="M492,-123L550,102L676,-112Z" fill="#c6e7b3" stroke="#c6e7b3"/><path d="M492,-123L676,-112L949,-129Z" fill="#b4deb4" stroke="#b4deb4"/><path d="M676,-112L550,102L678,91Z" fill="#bbe3a7" stroke="#bbe3a7"/><path d="M676,-112L678,91L861,-111Z" fill="#b0dca9" stroke="#b0dca9"/><path d="M676,-112L861,-111L949,-129Z" fill="#a3d6ab" stroke="#a3d6ab"/><path d="M861,-111L678,91L857,119Z" fill="#a4d89c" stroke="#a4d89c"/><path d="M861,-111L857,119L957,49Z" fill="#99d298" stroke="#99d298"/><path d="M861,-111L957,49L949,-129Z" fill="#97d1a0" stroke="#97d1a0"/><path d="M949,-129L957,49L1072,-52Z" fill="#8dcc99" stroke="#8dcc99"/><path d="M949,-129L1072,-52L1257,-86Z" fill="#80c698" stroke="#80c698"/><path d="M949,-129L1257,-86L1626,-135Z" fill="#80ba8f" stroke="#80ba8f"/><path d="M1072,-52L957,49L1065,116Z" fill="#84ca8d" stroke="#84ca8d"/><path d="M1072,-52L1065,116L1292,30Z" fill="#7cc286" stroke="#7cc286"/><path d="M1072,-52L1292,30L1257,-86Z" fill="#80be8a" stroke="#80be8a"/><path d="M1257,-86L1292,30L1455,-50Z" fill="#80b682" stroke="#80b682"/><path d="M1257,-86L1455,-50L1626,-135Z" fill="#80af81" stroke="#80af81"/><path d="M1455,-50L1292,30L1427,83Z" fill="#7db378" stroke="#7db378"/><path d="M1455,-50L1427,83L1628,106Z" fill="#7bac6e" stroke="#7bac6e"/><path d="M1455,-50L1628,106L1626,-135Z" fill="#80a772" stroke="#80a772"/><path d="M-122,116L-121,176L36,234Z" fill="#ecffba" stroke="#ecffba"/><path d="M-122,116L36,234L83,45Z" fill="#edfebc" stroke="#edfebc"/><path d="M83,45L36,234L212,86Z" fill="#e5fab8" stroke="#e5fab8"/><path d="M212,86L36,234L179,264Z" fill="#daf9ae" stroke="#daf9ae"/><path d="M212,86L179,264L422,277Z" fill="#cef5a6" stroke="#cef5a6"/><path d="M212,86L422,277L316,50Z" fill="#d3f3ac" stroke="#d3f3ac"/><path d="M316,50L422,277L550,102Z" fill="#c8efa6" stroke="#c8efa6"/><path d="M550,102L422,277L570,261Z" fill="#b7eb99" stroke="#b7eb99"/><path d="M550,102L570,261L710,215Z" fill="#ace495" stroke="#ace495"/><path d="M550,102L710,215L678,91Z" fill="#ade29a" stroke="#ade29a"/><path d="M678,91L710,215L857,119Z" fill="#9fdc93" stroke="#9fdc93"/><path d="M857,119L710,215L844,221Z" fill="#92d88a" stroke="#92d88a"/><path d="M857,119L844,221L1013,256Z" fill="#83d282" stroke="#83d282"/><path d="M857,119L1013,256L957,49Z" fill="#84cf86" stroke="#84cf86"/><path d="M957,49L1013,256L1065,116Z" fill="#7bcb82" stroke="#7bcb82"/><path d="M1065,116L1013,256L1162,181Z" fill="#6dc678" stroke="#6dc678"/><path d="M1065,116L1162,181L1292,30Z" fill="#74c17c" stroke="#74c17c"/><path d="M1292,30L1162,181L1268,237Z" fill="#6fbc72" stroke="#6fbc72"/><path d="M1292,30L1268,237L1427,83Z" fill="#73b771" stroke="#73b771"/><path d="M1427,83L1268,237L1396,238Z" fill="#6bb466" stroke="#6bb466"/><path d="M1427,83L1396,238L1571,176Z" fill="#6dae62" stroke="#6dae62"/><path d="M1427,83L1571,176L1628,106Z" fill="#72a963" stroke="#72a963"/><path d="M1628,106L1571,176L1580,375Z" fill="#68a655" stroke="#68a655"/><path d="M1628,106L1580,375L1633,718Z" fill="#2c8c39" stroke="#2c8c39"/><path d="M-121,176L-108,829L-108,357Z" fill="#9adf93" stroke="#9adf93"/><path d="M-121,176L-108,357L36,234Z" fill="#dcfbaf" stroke="#dcfbaf"/><path d="M36,234L-108,357L36,328Z" fill="#c8f3a5" stroke="#c8f3a5"/><path d="M36,234L36,328L179,264Z" fill="#caf3a5" stroke="#caf3a5"/><path d="M179,264L36,328L252,369Z" fill="#b6eb9b" stroke="#b6eb9b"/><path d="M179,264L252,369L422,277Z" fill="#b1e997" stroke="#b1e997"/><path d="M422,277L252,369L435,385Z" fill="#9ce18d" stroke="#9ce18d"/><path d="M422,277L435,385L466,351Z" fill="#98df8a" stroke="#98df8a"/><path d="M422,277L466,351L570,261Z" fill="#a1e28e" stroke="#a1e28e"/><path d="M570,261L466,351L708,349Z" fill="#8cd985" stroke="#8cd985"/><path d="M570,261L708,349L710,215Z" fill="#90da87" stroke="#90da87"/><path d="M710,215L708,349L844,221Z" fill="#88d683" stroke="#88d683"/><path d="M844,221L708,349L830,419Z" fill="#6cca76" stroke="#6cca76"/><path d="M844,221L830,419L1013,256Z" fill="#68c874" stroke="#68c874"/><path d="M1013,256L830,419L1034,433Z" fill="#48ba65" stroke="#48ba65"/><path d="M1013,256L1034,433L1180,425Z" fill="#38b25d" stroke="#38b25d"/><path d="M1013,256L1180,425L1162,181Z" fill="#52bb68" stroke="#52bb68"/><path d="M1162,181L1180,425L1268,237Z" fill="#54b763" stroke="#54b763"/><path d="M1268,237L1180,425L1300,317Z" fill="#45ad59" stroke="#45ad59"/><path d="M1268,237L1300,317L1396,238Z" fill="#59b25e" stroke="#59b25e"/><path d="M1396,238L1300,317L1447,411Z" fill="#46a651" stroke="#46a651"/><path d="M1396,238L1447,411L1580,375Z" fill="#409d48" stroke="#409d48"/><path d="M1396,238L1580,375L1571,176Z" fill="#5aa552" stroke="#5aa552"/><path d="M-108,357L-108,829L-102,507Z" fill="#80d081" stroke="#80d081"/><path d="M-108,357L-102,507L51,477Z" fill="#9ce091" stroke="#9ce091"/><path d="M-108,357L51,477L36,328Z" fill="#ace798" stroke="#ace798"/><path d="M36,328L51,477L252,369Z" fill="#a2e392" stroke="#a2e392"/><path d="M252,369L51,477L204,523Z" fill="#87d885" stroke="#87d885"/><path d="M252,369L204,523L370,522Z" fill="#79d27e" stroke="#79d27e"/><path d="M252,369L370,522L435,385Z" fill="#83d681" stroke="#83d681"/><path d="M435,385L370,522L535,516Z" fill="#6acc75" stroke="#6acc75"/><path d="M435,385L535,516L466,351Z" fill="#7ad27c" stroke="#7ad27c"/><path d="M466,351L535,516L708,349Z" fill="#71ce78" stroke="#71ce78"/><path d="M708,349L535,516L687,488Z" fill="#58c36c" stroke="#58c36c"/><path d="M708,349L687,488L830,419Z" fill="#55c16b" stroke="#55c16b"/><path d="M830,419L687,488L830,574Z" fill="#37b45d" stroke="#37b45d"/><path d="M830,419L830,574L996,515Z" fill="#26ac55" stroke="#26ac55"/><path d="M830,419L996,515L1034,433Z" fill="#2caf58" stroke="#2caf58"/><path d="M1034,433L996,515L1145,471Z" fill="#18a54e" stroke="#18a54e"/><path d="M1034,433L1145,471L1180,425Z" fill="#1ea54f" stroke="#1ea54f"/><path d="M1180,425L1145,471L1301,517Z" fill="#149c45" stroke="#149c45"/><path d="M1180,425L1301,517L1300,317Z" fill="#26a04a" stroke="#26a04a"/><path d="M1300,317L1301,517L1447,411Z" fill="#279b45" stroke="#279b45"/><path d="M1447,411L1301,517L1433,519Z" fill="#118f37" stroke="#118f37"/><path d="M1447,411L1433,519L1580,480Z" fill="#158b34" stroke="#158b34"/><path d="M1447,411L1580,480L1580,375Z" fill="#258e38" stroke="#258e38"/><path d="M1580,375L1580,480L1633,718Z" fill="#037c26" stroke="#037c26"/><path d="M-102,507L-108,829L-91,647Z" fill="#80c372" stroke="#80c372"/><path d="M-102,507L-91,647L56,640Z" fill="#7fcc79" stroke="#7fcc79"/><path d="M-102,507L56,640L51,477Z" fill="#7cd280" stroke="#7cd280"/><path d="M51,477L56,640L204,523Z" fill="#73ce7a" stroke="#73ce7a"/><path d="M204,523L56,640L231,668Z" fill="#6ec36e" stroke="#6ec36e"/><path d="M204,523L231,668L370,522Z" fill="#66c56f" stroke="#66c56f"/><path d="M370,522L231,668L399,668Z" fill="#61bc64" stroke="#61bc64"/><path d="M370,522L399,668L535,516Z" fill="#58bf67" stroke="#58bf67"/><path d="M535,516L399,668L582,709Z" fill="#50b359" stroke="#50b359"/><path d="M535,516L582,709L690,689Z" fill="#43ac52" stroke="#43ac52"/><path d="M535,516L690,689L687,488Z" fill="#3eb45b" stroke="#3eb45b"/><path d="M687,488L690,689L797,663Z" fill="#32a84e" stroke="#32a84e"/><path d="M687,488L797,663L830,574Z" fill="#2caa51" stroke="#2caa51"/><path d="M830,574L797,663L939,670Z" fill="#209c42" stroke="#209c42"/><path d="M830,574L939,670L996,515Z" fill="#179f46" stroke="#179f46"/><path d="M996,515L939,670L1091,682Z" fill="#0b943b" stroke="#0b943b"/><path d="M996,515L1091,682L1145,471Z" fill="#029940" stroke="#029940"/><path d="M1145,471L1091,682L1301,517Z" fill="#00923a" stroke="#00923a"/><path d="M1301,517L1091,682L1300,706Z" fill="#00842a" stroke="#00842a"/><path d="M1301,517L1300,706L1433,519Z" fill="#00852c" stroke="#00852c"/><path d="M1433,519L1300,706L1386,725Z" fill="#00791f" stroke="#00791f"/><path d="M1433,519L1386,725L1633,718Z" fill="#007217" stroke="#007217"/><path d="M1433,519L1633,718L1580,480Z" fill="#007920" stroke="#007920"/><path d="M-91,647L-108,829L56,640Z" fill="#80bd69" stroke="#80bd69"/><path d="M56,640L-108,829L109,813Z" fill="#7ab35d" stroke="#7ab35d"/><path d="M56,640L109,813L231,668Z" fill="#71b760" stroke="#71b760"/><path d="M231,668L109,813L225,828Z" fill="#6cac54" stroke="#6cac54"/><path d="M231,668L225,828L415,793Z" fill="#64aa50" stroke="#64aa50"/><path d="M231,668L415,793L399,668Z" fill="#5faf55" stroke="#5faf55"/><path d="M399,668L415,793L582,709Z" fill="#55a94e" stroke="#55a94e"/><path d="M582,709L415,793L537,879Z" fill="#4f9c44" stroke="#4f9c44"/><path d="M582,709L537,879L721,840Z" fill="#41943d" stroke="#41943d"/><path d="M582,709L721,840L690,689Z" fill="#3a993d" stroke="#3a993d"/><path d="M690,689L721,840L797,663Z" fill="#31973b" stroke="#31973b"/><path d="M797,663L721,840L770,851Z" fill="#2d8e34" stroke="#2d8e34"/><path d="M797,663L770,851L965,818Z" fill="#22892e" stroke="#22892e"/><path d="M797,663L965,818L939,670Z" fill="#1a8e32" stroke="#1a8e32"/><path d="M939,670L965,818L1091,682Z" fill="#0d872c" stroke="#0d872c"/><path d="M1091,682L965,818L1091,786Z" fill="#067e22" stroke="#067e22"/><path d="M1091,682L1091,786L1272,795Z" fill="#00791d" stroke="#00791d"/><path d="M1091,682L1272,795L1300,706Z" fill="#00781c" stroke="#00781c"/><path d="M1300,706L1272,795L1386,725Z" fill="#007014" stroke="#007014"/><path d="M1386,725L1272,795L1440,866Z" fill="#00660d" stroke="#00660d"/><path d="M1386,725L1440,866L1596,824Z" fill="#005d06" stroke="#005d06"/><path d="M1386,725L1596,824L1633,718Z" fill="#006004" stroke="#006004"/><path d="M-108,829L537,879L225,828Z" fill="#6aa152" stroke="#6aa152"/><path d="M-108,829L225,828L109,813Z" fill="#76a959" stroke="#76a959"/><path d="M225,828L537,879L415,793Z" fill="#5c9c4a" stroke="#5c9c4a"/><path d="M537,879L1440,866L770,851Z" fill="#18792a" stroke="#18792a"/><path d="M537,879L770,851L721,840Z" fill="#398939" stroke="#398939"/><path d="M770,851L1440,866L965,818Z" fill="#057221" stroke="#057221"/><path d="M965,818L1440,866L1091,786Z" fill="#006f1a" stroke="#006f1a"/><path d="M1091,786L1440,866L1272,795Z" fill="#006914" stroke="#006914"/></g></svg>