<svg width="974" height="624" xmlns="http://www.w3.org/2000/svg"><g><path d="M-17,-30L-58,42L117,130Z" fill="#f9fed8" stroke="#f9fed8"/><path d="M-17,-30L117,130L96,-74Z" fill="#f3fbda" stroke="#f3fbda"/><path d="M96,-74L117,130L274,36Z" fill="#e1f4d0" stroke="#e1f4d0"/><path d="M96,-74L274,36L218,-78Z" fill="#dcf1d9" stroke="#dcf1d9"/><path d="M218,-78L274,36L369,-75Z" fill="#c8e9dc" stroke="#c8e9dc"/><path d="M218,-78L369,-75L522,-85Z" fill="#b7e3de" stroke="#b7e3de"/><path d="M369,-75L274,36L332,96Z" fill="#bee6d5" stroke="#bee6d5"/><path d="M369,-75L332,96L518,121Z" fill="#ace0d3" stroke="#ace0d3"/><path d="M369,-75L518,121L522,-85Z" fill="#a4dcdd" stroke="#a4dcdd"/><path d="M522,-85L518,121L618,-28Z" fill="#9cd0d9" stroke="#9cd0d9"/><path d="M522,-85L618,-28L794,-63Z" fill="#96c0dc" stroke="#96c0dc"/><path d="M522,-85L794,-63L1150,-58Z" fill="#9297c9" stroke="#9297c9"/><path d="M618,-28L518,121L626,174Z" fill="#92cacc" stroke="#92cacc"/><path d="M618,-28L626,174L714,95Z" fill="#8fbeca" stroke="#8fbeca"/><path d="M618,-28L714,95L794,-63Z" fill="#94b2cf" stroke="#94b2cf"/><path d="M794,-63L714,95L840,19Z" fill="#91a0c4" stroke="#91a0c4"/><path d="M794,-63L840,19L1010,-32Z" fill="#918ac0" stroke="#918ac0"/><path d="M794,-63L1010,-32L1150,-58Z" fill="#8f80b7" stroke="#8f80b7"/><path d="M1010,-32L840,19L917,128Z" fill="#8c80b2" stroke="#8c80b2"/><path d="M1010,-32L917,128L1069,105Z" fill="#8880a6" stroke="#8880a6"/><path d="M1010,-32L1069,105L1150,-58Z" fill="#8c80a6" stroke="#8c80a6"/><path d="M1150,-58L1069,105L1153,236Z" fill="#848095" stroke="#848095"/><path d="M1150,-58L1153,236L1173,324Z" fill="#687d92" stroke="#687d92"/><path d="M-58,42L-130,195L108,186Z" fill="#e7fdd5" stroke="#e7fdd5"/><path d="M-58,42L108,186L117,130Z" fill="#e6fbce" stroke="#e6fbce"/><path d="M117,130L108,186L198,191Z" fill="#c3f3ca" stroke="#c3f3ca"/><path d="M117,130L198,191L274,36Z" fill="#cdf1c7" stroke="#cdf1c7"/><path d="M274,36L198,191L332,96Z" fill="#c1ebc8" stroke="#c1ebc8"/><path d="M332,96L198,191L383,216Z" fill="#a0e5cb" stroke="#a0e5cb"/><path d="M332,96L383,216L518,121Z" fill="#95decd" stroke="#95decd"/><path d="M518,121L383,216L548,214Z" fill="#77d7d1" stroke="#77d7d1"/><path d="M518,121L548,214L626,174Z" fill="#77cbcd" stroke="#77cbcd"/><path d="M714,95L626,174L860,234Z" fill="#70a9c1" stroke="#70a9c1"/><path d="M714,95L860,234L917,128Z" fill="#7593b6" stroke="#7593b6"/><path d="M714,95L917,128L840,19Z" fill="#8b97b7" stroke="#8b97b7"/><path d="M917,128L860,234L992,229Z" fill="#607cad" stroke="#607cad"/><path d="M917,128L992,229L1069,105Z" fill="#717da4" stroke="#717da4"/><path d="M1069,105L992,229L1153,236Z" fill="#607c9c" stroke="#607c9c"/><path d="M-130,195L-97,814L-82,480Z" fill="#97a9cb" stroke="#97a9cb"/><path d="M-130,195L-82,480L-34,323Z" fill="#a4e6e0" stroke="#a4e6e0"/><path d="M-130,195L-34,323L108,186Z" fill="#c2f7d9" stroke="#c2f7d9"/><path d="M108,186L-34,323L45,366Z" fill="#a6ecd7" stroke="#a6ecd7"/><path d="M108,186L45,366L198,191Z" fill="#a9edcf" stroke="#a9edcf"/><path d="M198,191L45,366L219,422Z" fill="#8addcf" stroke="#8addcf"/><path d="M198,191L219,422L383,216Z" fill="#80ddcf" stroke="#80ddcf"/><path d="M383,216L219,422L426,360Z" fill="#60cbd2" stroke="#60cbd2"/><path d="M383,216L426,360L548,214Z" fill="#5fd1d4" stroke="#5fd1d4"/><path d="M548,214L426,360L546,408Z" fill="#44bfd6" stroke="#44bfd6"/><path d="M548,214L546,408L724,404Z" fill="#3caad1" stroke="#3caad1"/><path d="M548,214L724,404L626,174Z" fill="#4fb6cf" stroke="#4fb6cf"/><path d="M626,174L724,404L860,234Z" fill="#499ec6" stroke="#499ec6"/><path d="M860,234L724,404L867,320Z" fill="#3883be" stroke="#3883be"/><path d="M860,234L867,320L992,229Z" fill="#4978b2" stroke="#4978b2"/><path d="M992,229L867,320L946,425Z" fill="#3569b1" stroke="#3569b1"/><path d="M992,229L946,425L1173,324Z" fill="#3368a5" stroke="#3368a5"/><path d="M992,229L1173,324L1153,236Z" fill="#44739c" stroke="#44739c"/><path d="M-34,323L-82,480L45,366Z" fill="#9dd4d7" stroke="#9dd4d7"/><path d="M45,366L-82,480L69,487Z" fill="#97bfcd" stroke="#97bfcd"/><path d="M45,366L69,487L219,422Z" fill="#86c0ca" stroke="#86c0ca"/><path d="M219,422L69,487L181,544Z" fill="#7ca4ba" stroke="#7ca4ba"/><path d="M219,422L181,544L408,576Z" fill="#628db6" stroke="#628db6"/><path d="M219,422L408,576L426,360Z" fill="#53a1c4" stroke="#53a1c4"/><path d="M426,360L408,576L546,408Z" fill="#3f9bc9" stroke="#3f9bc9"/><path d="M546,408L408,576L578,577Z" fill="#3576b9" stroke="#3576b9"/><path d="M546,408L578,577L672,560Z" fill="#3069b7" stroke="#3069b7"/><path d="M546,408L672,560L724,404Z" fill="#2f7ac1" stroke="#2f7ac1"/><path d="M724,404L672,560L881,498Z" fill="#2b53af" stroke="#2b53af"/><path d="M724,404L881,498L867,320Z" fill="#2d66b7" stroke="#2d66b7"/><path d="M867,320L881,498L946,425Z" fill="#2b52ae" stroke="#2b52ae"/><path d="M946,425L881,498L1015,470Z" fill="#28379f" stroke="#28379f"/><path d="M946,425L1015,470L1173,324Z" fill="#294f9e" stroke="#294f9e"/><path d="M1173,324L1015,470L1123,543Z" fill="#253f91" stroke="#253f91"/><path d="M1173,324L1123,543L1146,649Z" fill="#222680" stroke="#222680"/><path d="M-82,480L-97,814L-19,704Z" fill="#9080a5" stroke="#9080a5"/><path d="M-82,480L-19,704L72,667Z" fill="#9280ab" stroke="#9280ab"/><path d="M-82,480L72,667L69,487Z" fill="#9193b8" stroke="#9193b8"/><path d="M69,487L72,667L181,544Z" fill="#8184ad" stroke="#8184ad"/><path d="M181,544L72,667L181,641Z" fill="#7976a0" stroke="#7976a0"/><path d="M181,544L181,641L322,678Z" fill="#676f9f" stroke="#676f9f"/><path d="M181,544L322,678L408,576Z" fill="#5769a5" stroke="#5769a5"/><path d="M408,576L322,678L553,617Z" fill="#3e5fa3" stroke="#3e5fa3"/><path d="M408,576L553,617L578,577Z" fill="#3358ab" stroke="#3358ab"/><path d="M578,577L553,617L687,708Z" fill="#2b479e" stroke="#2b479e"/><path d="M578,577L687,708L672,560Z" fill="#2940a1" stroke="#2940a1"/><path d="M672,560L687,708L845,687Z" fill="#252c90" stroke="#252c90"/><path d="M672,560L845,687L881,498Z" fill="#272297" stroke="#272297"/><path d="M881,498L845,687L976,693Z" fill="#230682" stroke="#230682"/><path d="M881,498L976,693L1015,470Z" fill="#24118b" stroke="#24118b"/><path d="M1015,470L976,693L1123,543Z" fill="#220a7f" stroke="#220a7f"/><path d="M1123,543L976,693L1146,649Z" fill="#1f006e" stroke="#1f006e"/><path d="M-19,704L-97,814L132,878Z" fill="#8a7f84" stroke="#8a7f84"/><path d="M-19,704L132,878L72,667Z" fill="#827c8a" stroke="#827c8a"/><path d="M72,667L132,878L181,641Z" fill="#78778a" stroke="#78778a"/><path d="M181,641L132,878L248,844Z" fill="#6a737b" stroke="#6a737b"/><path d="M181,641L248,844L322,678Z" fill="#5f6d8b" stroke="#5f6d8b"/><path d="M322,678L248,844L359,793Z" fill="#506881" stroke="#506881"/><path d="M322,678L359,793L553,617Z" fill="#3e6194" stroke="#3e6194"/><path d="M553,617L359,793L487,833Z" fill="#325d8b" stroke="#325d8b"/><path d="M553,617L487,833L687,708Z" fill="#2a4c8e" stroke="#2a4c8e"/><path d="M687,708L487,833L695,864Z" fill="#23447b" stroke="#23447b"/><path d="M687,708L695,864L834,828Z" fill="#1f2b70" stroke="#1f2b70"/><path d="M687,708L834,828L845,687Z" fill="#212077" stroke="#212077"/><path d="M845,687L834,828L976,693Z" fill="#1f096e" stroke="#1f096e"/><path d="M976,693L834,828L1002,838Z" fill="#1c005d" stroke="#1c005d"/><path d="M976,693L1002,838L1085,861Z" fill="#1a0052" stroke="#1a0052"/><path d="M976,693L1085,861L1146,649Z" fill="#1b0059" stroke="#1b0059"/><path d="M132,878L1085,861L695,864Z" fill="#20426d" stroke="#20426d"/><path d="M132,878L695,864L487,833Z" fill="#335f73" stroke="#335f73"/><path d="M132,878L487,833L248,844Z" fill="#516a70" stroke="#516a70"/><path d="M248,844L487,833L359,793Z" fill="#436478" stroke="#436478"/><path d="M695,864L1085,861L1002,838Z" fill="#190050" stroke="#190050"/><path d="M695,864L1002,838L834,828Z" fill="#1c135c" stroke="#1c135c"/></g></svg>