<svg width="1366" height="624" xmlns="http://www.w3.org/2000/svg"><g><path d="M-107,-40L-110,373L-68,116Z" fill="#e9eafa" stroke="#e9eafa"/><path d="M-107,-40L-68,116L74,89Z" fill="#f1eef9" stroke="#f1eef9"/><path d="M-107,-40L74,89L111,-78Z" fill="#f4f0f7" stroke="#f4f0f7"/><path d="M111,-78L74,89L226,19Z" fill="#eaebf5" stroke="#eaebf5"/><path d="M111,-78L226,19L271,-32Z" fill="#e6e9f3" stroke="#e6e9f3"/><path d="M111,-78L271,-32L320,-74Z" fill="#e4e7f2" stroke="#e4e7f2"/><path d="M111,-78L320,-74L580,-121Z" fill="#dce3f0" stroke="#dce3f0"/><path d="M271,-32L226,19L355,69Z" fill="#dde4f1" stroke="#dde4f1"/><path d="M271,-32L355,69L320,-74Z" fill="#dee4f0" stroke="#dee4f0"/><path d="M320,-74L355,69L580,-121Z" fill="#d6e0ee" stroke="#d6e0ee"/><path d="M580,-121L355,69L568,115Z" fill="#c9daea" stroke="#c9daea"/><path d="M580,-121L568,115L674,-94Z" fill="#bcd7e2" stroke="#bcd7e2"/><path d="M580,-121L674,-94L879,-96Z" fill="#acd2db" stroke="#acd2db"/><path d="M580,-121L879,-96L980,-97Z" fill="#9dcdd3" stroke="#9dcdd3"/><path d="M580,-121L980,-97L1145,-103Z" fill="#8fc8cd" stroke="#8fc8cd"/><path d="M580,-121L1145,-103L1576,-95Z" fill="#80bebf" stroke="#80bebf"/><path d="M674,-94L568,115L640,112Z" fill="#b3d3e1" stroke="#b3d3e1"/><path d="M674,-94L640,112L803,107Z" fill="#a7cfdb" stroke="#a7cfdb"/><path d="M674,-94L803,107L879,-96Z" fill="#a1ced5" stroke="#a1ced5"/><path d="M879,-96L803,107L1027,95Z" fill="#8ac6cd" stroke="#8ac6cd"/><path d="M879,-96L1027,95L980,-97Z" fill="#86c5c9" stroke="#86c5c9"/><path d="M980,-97L1027,95L1145,-103Z" fill="#80c1c2" stroke="#80c1c2"/><path d="M1145,-103L1027,95L1131,119Z" fill="#7bbcbe" stroke="#7bbcbe"/><path d="M1145,-103L1131,119L1293,123Z" fill="#79b6b8" stroke="#79b6b8"/><path d="M1145,-103L1293,123L1332,-57Z" fill="#80b7b3" stroke="#80b7b3"/><path d="M1145,-103L1332,-57L1385,-64Z" fill="#80b5b1" stroke="#80b5b1"/><path d="M1145,-103L1385,-64L1576,-95Z" fill="#80b1ab" stroke="#80b1ab"/><path d="M1332,-57L1293,123L1421,111Z" fill="#78aead" stroke="#78aead"/><path d="M1332,-57L1421,111L1385,-64Z" fill="#80b1aa" stroke="#80b1aa"/><path d="M1385,-64L1421,111L1550,62Z" fill="#7baba5" stroke="#7baba5"/><path d="M1385,-64L1550,62L1576,-95Z" fill="#80aaa1" stroke="#80aaa1"/><path d="M1576,-95L1550,62L1601,196Z" fill="#78a39c" stroke="#78a39c"/><path d="M-68,116L-110,373L-49,236Z" fill="#d2e0f3" stroke="#d2e0f3"/><path d="M-68,116L-49,236L96,211Z" fill="#dde4f8" stroke="#dde4f8"/><path d="M-68,116L96,211L74,89Z" fill="#e0e5f7" stroke="#e0e5f7"/><path d="M74,89L96,211L226,19Z" fill="#dde4f5" stroke="#dde4f5"/><path d="M226,19L96,211L193,256Z" fill="#d3def4" stroke="#d3def4"/><path d="M226,19L193,256L355,69Z" fill="#d2def2" stroke="#d2def2"/><path d="M355,69L193,256L346,273Z" fill="#c3d6f1" stroke="#c3d6f1"/><path d="M355,69L346,273L508,229Z" fill="#bdd3ee" stroke="#bdd3ee"/><path d="M355,69L508,229L568,115Z" fill="#bcd3ec" stroke="#bcd3ec"/><path d="M568,115L508,229L623,166Z" fill="#aacce5" stroke="#aacce5"/><path d="M568,115L623,166L640,112Z" fill="#a9cde2" stroke="#a9cde2"/><path d="M640,112L623,166L800,196Z" fill="#9ac7dc" stroke="#9ac7dc"/><path d="M640,112L800,196L803,107Z" fill="#93c6d8" stroke="#93c6d8"/><path d="M803,107L800,196L917,274Z" fill="#7ebdd1" stroke="#7ebdd1"/><path d="M803,107L917,274L1027,95Z" fill="#77bccc" stroke="#77bccc"/><path d="M1027,95L917,274L1073,252Z" fill="#63b4c5" stroke="#63b4c5"/><path d="M1027,95L1073,252L1131,119Z" fill="#6ab5c0" stroke="#6ab5c0"/><path d="M1131,119L1073,252L1267,168Z" fill="#67afba" stroke="#67afba"/><path d="M1131,119L1267,168L1293,123Z" fill="#6daeb5" stroke="#6daeb5"/><path d="M1293,123L1267,168L1369,199Z" fill="#69a8af" stroke="#69a8af"/><path d="M1293,123L1369,199L1421,111Z" fill="#6ca7ac" stroke="#6ca7ac"/><path d="M1421,111L1369,199L1601,196Z" fill="#69a0a4" stroke="#69a0a4"/><path d="M1421,111L1601,196L1550,62Z" fill="#6fa0a0" stroke="#6fa0a0"/><path d="M-49,236L-110,373L44,386Z" fill="#acd3e3" stroke="#acd3e3"/><path d="M-49,236L44,386L96,211Z" fill="#bbd8eb" stroke="#bbd8eb"/><path d="M96,211L44,386L193,256Z" fill="#b3d4e8" stroke="#b3d4e8"/><path d="M193,256L44,386L182,426Z" fill="#95c9db" stroke="#95c9db"/><path d="M193,256L182,426L346,273Z" fill="#9ccadf" stroke="#9ccadf"/><path d="M346,273L182,426L384,389Z" fill="#85c2d6" stroke="#85c2d6"/><path d="M346,273L384,389L538,321Z" fill="#8ac2d9" stroke="#8ac2d9"/><path d="M346,273L538,321L508,229Z" fill="#9bc6e1" stroke="#9bc6e1"/><path d="M508,229L538,321L623,166Z" fill="#9bc6e0" stroke="#9bc6e0"/><path d="M623,166L538,321L734,344Z" fill="#81bed4" stroke="#81bed4"/><path d="M623,166L734,344L800,196Z" fill="#84bfd5" stroke="#84bfd5"/><path d="M800,196L734,344L917,274Z" fill="#66b5c8" stroke="#66b5c8"/><path d="M917,274L734,344L865,405Z" fill="#48abba" stroke="#48abba"/><path d="M917,274L865,405L943,413Z" fill="#35a5b1" stroke="#35a5b1"/><path d="M917,274L943,413L1073,252Z" fill="#3ea8b5" stroke="#3ea8b5"/><path d="M1073,252L943,413L1116,409Z" fill="#289fa8" stroke="#289fa8"/><path d="M1073,252L1116,409L1259,394Z" fill="#2b9aa2" stroke="#2b9aa2"/><path d="M1073,252L1259,394L1267,168Z" fill="#4aa2ac" stroke="#4aa2ac"/><path d="M1267,168L1259,394L1369,199Z" fill="#51a0a8" stroke="#51a0a8"/><path d="M1369,199L1259,394L1367,396Z" fill="#349498" stroke="#349498"/><path d="M1369,199L1367,396L1523,418Z" fill="#308f90" stroke="#308f90"/><path d="M1369,199L1523,418L1601,196Z" fill="#4b9497" stroke="#4b9497"/><path d="M1601,196L1523,418L1558,618Z" fill="#147f7a" stroke="#147f7a"/><path d="M1601,196L1558,618L1622,802Z" fill="#006d61" stroke="#006d61"/><path d="M-110,373L-109,691L-50,543Z" fill="#7dbcc0" stroke="#7dbcc0"/><path d="M-110,373L-50,543L44,386Z" fill="#84c6d1" stroke="#84c6d1"/><path d="M44,386L-50,543L15,553Z" fill="#76bdc6" stroke="#76bdc6"/><path d="M44,386L15,553L182,426Z" fill="#72bfca" stroke="#72bfca"/><path d="M182,426L15,553L204,509Z" fill="#6cb8c2" stroke="#6cb8c2"/><path d="M182,426L204,509L325,498Z" fill="#64b6c3" stroke="#64b6c3"/><path d="M182,426L325,498L384,389Z" fill="#68b8c8" stroke="#68b8c8"/><path d="M384,389L325,498L495,505Z" fill="#57b1c1" stroke="#57b1c1"/><path d="M384,389L495,505L538,321Z" fill="#67b5ca" stroke="#67b5ca"/><path d="M538,321L495,505L698,466Z" fill="#4dadbd" stroke="#4dadbd"/><path d="M538,321L698,466L734,344Z" fill="#56b0c1" stroke="#56b0c1"/><path d="M734,344L698,466L865,405Z" fill="#3aa7b4" stroke="#3aa7b4"/><path d="M865,405L698,466L867,518Z" fill="#1e9da7" stroke="#1e9da7"/><path d="M865,405L867,518L924,474Z" fill="#1299a1" stroke="#1299a1"/><path d="M865,405L924,474L943,413Z" fill="#1a9ca5" stroke="#1a9ca5"/><path d="M943,413L924,474L1116,409Z" fill="#0d989f" stroke="#0d989f"/><path d="M1116,409L924,474L1138,566Z" fill="#008e91" stroke="#008e91"/><path d="M1116,409L1138,566L1259,394Z" fill="#028c8e" stroke="#028c8e"/><path d="M1259,394L1138,566L1278,546Z" fill="#008482" stroke="#008482"/><path d="M1259,394L1278,546L1367,396Z" fill="#068786" stroke="#068786"/><path d="M1367,396L1278,546L1468,504Z" fill="#007f7b" stroke="#007f7b"/><path d="M1367,396L1468,504L1523,418Z" fill="#09807c" stroke="#09807c"/><path d="M1523,418L1468,504L1525,516Z" fill="#007972" stroke="#007972"/><path d="M1523,418L1525,516L1558,618Z" fill="#007268" stroke="#007268"/><path d="M-50,543L-109,691L16,660Z" fill="#7aaeae" stroke="#7aaeae"/><path d="M-50,543L16,660L15,553Z" fill="#77b2b6" stroke="#77b2b6"/><path d="M15,553L16,660L204,509Z" fill="#70b0b6" stroke="#70b0b6"/><path d="M204,509L16,660L264,628Z" fill="#6aa9b0" stroke="#6aa9b0"/><path d="M204,509L264,628L325,498Z" fill="#62acb7" stroke="#62acb7"/><path d="M325,498L264,628L382,704Z" fill="#5da2aa" stroke="#5da2aa"/><path d="M325,498L382,704L495,505Z" fill="#57a3af" stroke="#57a3af"/><path d="M495,505L382,704L498,716Z" fill="#5398a1" stroke="#5398a1"/><path d="M495,505L498,716L631,713Z" fill="#46949b" stroke="#46949b"/><path d="M495,505L631,713L698,466Z" fill="#3c9ba4" stroke="#3c9ba4"/><path d="M698,466L631,713L814,642Z" fill="#2c8f94" stroke="#2c8f94"/><path d="M698,466L814,642L867,518Z" fill="#20949a" stroke="#20949a"/><path d="M867,518L814,642L1019,650Z" fill="#108788" stroke="#108788"/><path d="M867,518L1019,650L924,474Z" fill="#0a8c8f" stroke="#0a8c8f"/><path d="M924,474L1019,650L1138,566Z" fill="#008685" stroke="#008685"/><path d="M1138,566L1019,650L1160,701Z" fill="#007873" stroke="#007873"/><path d="M1138,566L1160,701L1290,637Z" fill="#00746d" stroke="#00746d"/><path d="M1138,566L1290,637L1278,546Z" fill="#007973" stroke="#007973"/><path d="M1278,546L1290,637L1404,656Z" fill="#007167" stroke="#007167"/><path d="M1278,546L1404,656L1468,504Z" fill="#00736a" stroke="#00736a"/><path d="M1468,504L1404,656L1558,618Z" fill="#006c60" stroke="#006c60"/><path d="M1468,504L1558,618L1525,516Z" fill="#007065" stroke="#007065"/><path d="M-109,691L-35,813L16,660Z" fill="#7aa29f" stroke="#7aa29f"/><path d="M16,660L-35,813L110,801Z" fill="#749b97" stroke="#749b97"/><path d="M16,660L110,801L264,628Z" fill="#6c9e9f" stroke="#6c9e9f"/><path d="M264,628L110,801L247,807Z" fill="#669594" stroke="#669594"/><path d="M264,628L247,807L382,704Z" fill="#5f9598" stroke="#5f9598"/><path d="M382,704L247,807L407,799Z" fill="#5c8c8d" stroke="#5c8c8d"/><path d="M382,704L407,799L498,716Z" fill="#558d90" stroke="#558d90"/><path d="M498,716L407,799L550,865Z" fill="#4f8385" stroke="#4f8385"/><path d="M498,716L550,865L631,713Z" fill="#438384" stroke="#438384"/><path d="M631,713L550,865L680,823Z" fill="#3a7c79" stroke="#3a7c79"/><path d="M631,713L680,823L814,642Z" fill="#2d8180" stroke="#2d8180"/><path d="M814,642L680,823L813,836Z" fill="#247975" stroke="#247975"/><path d="M814,642L813,836L955,819Z" fill="#16746e" stroke="#16746e"/><path d="M814,642L955,819L1019,650Z" fill="#0b7974" stroke="#0b7974"/><path d="M1019,650L955,819L1160,701Z" fill="#007168" stroke="#007168"/><path d="M1160,701L955,819L1163,869Z" fill="#006558" stroke="#006558"/><path d="M1160,701L1163,869L1285,804Z" fill="#006051" stroke="#006051"/><path d="M1160,701L1285,804L1290,637Z" fill="#00685b" stroke="#00685b"/><path d="M1290,637L1285,804L1404,656Z" fill="#006658" stroke="#006658"/><path d="M1404,656L1285,804L1419,875Z" fill="#005a47" stroke="#005a47"/><path d="M1404,656L1419,875L1622,802Z" fill="#00543f" stroke="#00543f"/><path d="M1404,656L1622,802L1558,618Z" fill="#005d4b" stroke="#005d4b"/><path d="M-35,813L550,865L247,807Z" fill="#638885" stroke="#638885"/><path d="M-35,813L247,807L110,801Z" fill="#6e918c" stroke="#6e918c"/><path d="M247,807L550,865L407,799Z" fill="#578382" stroke="#578382"/><path d="M550,865L1419,875L1163,869Z" fill="#005e4f" stroke="#005e4f"/><path d="M550,865L1163,869L813,836Z" fill="#196a5f" stroke="#196a5f"/><path d="M550,865L813,836L680,823Z" fill="#31746e" stroke="#31746e"/><path d="M813,836L1163,869L955,819Z" fill="#046558" stroke="#046558"/><path d="M1163,869L1419,875L1285,804Z" fill="#005540" stroke="#005540"/></g></svg>