<svg width="974" height="667" xmlns="http://www.w3.org/2000/svg"><g><path d="M-35,-26L-77,79L122,58Z" fill="#fbfbfb" stroke="#fbfbfb"/><path d="M-35,-26L122,58L64,-67Z" fill="#f6f6f6" stroke="#f6f6f6"/><path d="M-35,-26L64,-67L187,-138Z" fill="#f3f3f3" stroke="#f3f3f3"/><path d="M64,-67L122,58L199,38Z" fill="#ededed" stroke="#ededed"/><path d="M64,-67L199,38L187,-138Z" fill="#ebebeb" stroke="#ebebeb"/><path d="M187,-138L199,38L369,-125Z" fill="#e1e1e1" stroke="#e1e1e1"/><path d="M187,-138L369,-125L493,-132Z" fill="#d4d4d4" stroke="#d4d4d4"/><path d="M187,-138L493,-132L956,-123Z" fill="#bbbbbb" stroke="#bbbbbb"/><path d="M369,-125L199,38L344,86Z" fill="#dbdbdb" stroke="#dbdbdb"/><path d="M369,-125L344,86L493,-132Z" fill="#cdcdcd" stroke="#cdcdcd"/><path d="M493,-132L344,86L525,135Z" fill="#c6c6c6" stroke="#c6c6c6"/><path d="M493,-132L525,135L687,-117Z" fill="#b8b8b8" stroke="#b8b8b8"/><path d="M493,-132L687,-117L956,-123Z" fill="#a6a6a6" stroke="#a6a6a6"/><path d="M687,-117L525,135L744,76Z" fill="#aeaeae" stroke="#aeaeae"/><path d="M687,-117L744,76L811,-36Z" fill="#a0a0a0" stroke="#a0a0a0"/><path d="M687,-117L811,-36L956,-123Z" fill="#959595" stroke="#959595"/><path d="M811,-36L744,76L817,134Z" fill="#999999" stroke="#999999"/><path d="M811,-36L817,134L923,14Z" fill="#909090" stroke="#909090"/><path d="M811,-36L923,14L956,-123Z" fill="#888888" stroke="#888888"/><path d="M956,-123L923,14L1103,-69Z" fill="#808080" stroke="#808080"/><path d="M1103,-69L923,14L1140,113Z" fill="#808080" stroke="#808080"/><path d="M-77,79L-131,285L7,217Z" fill="#f0f0f0" stroke="#f0f0f0"/><path d="M-77,79L7,217L122,58Z" fill="#f6f6f6" stroke="#f6f6f6"/><path d="M122,58L7,217L255,174Z" fill="#e5e5e5" stroke="#e5e5e5"/><path d="M122,58L255,174L199,38Z" fill="#e7e7e7" stroke="#e7e7e7"/><path d="M199,38L255,174L344,86Z" fill="#dfdfdf" stroke="#dfdfdf"/><path d="M344,86L255,174L312,211Z" fill="#d1d1d1" stroke="#d1d1d1"/><path d="M344,86L312,211L525,135Z" fill="#c7c7c7" stroke="#c7c7c7"/><path d="M525,135L312,211L540,211Z" fill="#b8b8b8" stroke="#b8b8b8"/><path d="M525,135L540,211L635,188Z" fill="#ababab" stroke="#ababab"/><path d="M525,135L635,188L744,76Z" fill="#aaaaaa" stroke="#aaaaaa"/><path d="M744,76L635,188L817,134Z" fill="#9d9d9d" stroke="#9d9d9d"/><path d="M817,134L635,188L744,317Z" fill="#8e8e8e" stroke="#8e8e8e"/><path d="M817,134L744,317L895,197Z" fill="#808080" stroke="#808080"/><path d="M817,134L895,197L923,14Z" fill="#888888" stroke="#888888"/><path d="M923,14L895,197L1024,225Z" fill="#787878" stroke="#787878"/><path d="M923,14L1024,225L1140,113Z" fill="#7c7c7c" stroke="#7c7c7c"/><path d="M1140,113L1024,225L1152,193Z" fill="#737373" stroke="#737373"/><path d="M-131,285L-119,537L-44,301Z" fill="#c6c6c6" stroke="#c6c6c6"/><path d="M-131,285L-44,301L7,217Z" fill="#dedede" stroke="#dedede"/><path d="M7,217L-44,301L165,338Z" fill="#d1d1d1" stroke="#d1d1d1"/><path d="M7,217L165,338L255,174Z" fill="#d0d0d0" stroke="#d0d0d0"/><path d="M255,174L165,338L312,211Z" fill="#c7c7c7" stroke="#c7c7c7"/><path d="M312,211L165,338L310,395Z" fill="#b3b3b3" stroke="#b3b3b3"/><path d="M312,211L310,395L540,211Z" fill="#acacac" stroke="#acacac"/><path d="M540,211L310,395L382,465Z" fill="#969696" stroke="#969696"/><path d="M540,211L382,465L501,473Z" fill="#888888" stroke="#888888"/><path d="M540,211L501,473L596,412Z" fill="#838383" stroke="#838383"/><path d="M540,211L596,412L635,188Z" fill="#939393" stroke="#939393"/><path d="M635,188L596,412L744,317Z" fill="#838383" stroke="#838383"/><path d="M895,197L744,317L809,351Z" fill="#6f6f6f" stroke="#6f6f6f"/><path d="M895,197L809,351L909,424Z" fill="#5e5e5e" stroke="#5e5e5e"/><path d="M895,197L909,424L1024,225Z" fill="#5c5c5c" stroke="#5c5c5c"/><path d="M1024,225L909,424L963,475Z" fill="#464646" stroke="#464646"/><path d="M1024,225L963,475L1155,424Z" fill="#464646" stroke="#464646"/><path d="M1024,225L1155,424L1152,193Z" fill="#5b5b5b" stroke="#5b5b5b"/><path d="M1152,193L1155,424L1169,859Z" fill="#2d2d2d" stroke="#2d2d2d"/><path d="M-44,301L-119,537L17,457Z" fill="#bababa" stroke="#bababa"/><path d="M-44,301L17,457L136,428Z" fill="#b9b9b9" stroke="#b9b9b9"/><path d="M-44,301L136,428L165,338Z" fill="#bdbdbd" stroke="#bdbdbd"/><path d="M136,428L17,457L11,720Z" fill="#969696" stroke="#969696"/><path d="M136,428L11,720L250,738Z" fill="#737373" stroke="#737373"/><path d="M136,428L250,738L240,458Z" fill="#848484" stroke="#848484"/><path d="M136,428L240,458L165,338Z" fill="#a8a8a8" stroke="#a8a8a8"/><path d="M165,338L240,458L310,395Z" fill="#a4a4a4" stroke="#a4a4a4"/><path d="M310,395L240,458L382,465Z" fill="#939393" stroke="#939393"/><path d="M596,412L501,473L608,539Z" fill="#6a6a6a" stroke="#6a6a6a"/><path d="M596,412L608,539L781,484Z" fill="#5e5e5e" stroke="#5e5e5e"/><path d="M596,412L781,484L744,317Z" fill="#676767" stroke="#676767"/><path d="M744,317L781,484L809,351Z" fill="#606060" stroke="#606060"/><path d="M809,351L781,484L909,424Z" fill="#505050" stroke="#505050"/><path d="M909,424L781,484L963,475Z" fill="#3f3f3f" stroke="#3f3f3f"/><path d="M1155,424L963,475L1052,574Z" fill="#2d2d2d" stroke="#2d2d2d"/><path d="M1155,424L1052,574L1151,619Z" fill="#202020" stroke="#202020"/><path d="M1155,424L1151,619L1169,859Z" fill="#050505" stroke="#050505"/><path d="M-119,537L-45,787L-30,747Z" fill="#808080" stroke="#808080"/><path d="M-119,537L-30,747L11,720Z" fill="#808080" stroke="#808080"/><path d="M-119,537L11,720L17,457Z" fill="#959595" stroke="#959595"/><path d="M240,458L250,738L369,625Z" fill="#6a6a6a" stroke="#6a6a6a"/><path d="M240,458L369,625L382,465Z" fill="#7d7d7d" stroke="#7d7d7d"/><path d="M382,465L369,625L501,473Z" fill="#707070" stroke="#707070"/><path d="M501,473L369,625L519,617Z" fill="#5c5c5c" stroke="#5c5c5c"/><path d="M501,473L519,617L608,539Z" fill="#595959" stroke="#595959"/><path d="M608,539L519,617L709,697Z" fill="#3c3c3c" stroke="#3c3c3c"/><path d="M608,539L709,697L779,634Z" fill="#303030" stroke="#303030"/><path d="M608,539L779,634L781,484Z" fill="#404040" stroke="#404040"/><path d="M781,484L779,634L963,475Z" fill="#333333" stroke="#333333"/><path d="M963,475L779,634L992,666Z" fill="#171717" stroke="#171717"/><path d="M963,475L992,666L1052,574Z" fill="#161616" stroke="#161616"/><path d="M1052,574L992,666L1151,619Z" fill="#090909" stroke="#090909"/><path d="M-30,747L-45,787L11,720Z" fill="#7e7e7e" stroke="#7e7e7e"/><path d="M11,720L-45,787L132,892Z" fill="#787878" stroke="#787878"/><path d="M11,720L132,892L207,847Z" fill="#6f6f6f" stroke="#6f6f6f"/><path d="M11,720L207,847L250,738Z" fill="#6b6b6b" stroke="#6b6b6b"/><path d="M250,738L207,847L415,841Z" fill="#5d5d5d" stroke="#5d5d5d"/><path d="M250,738L415,841L369,625Z" fill="#555555" stroke="#555555"/><path d="M369,625L415,841L519,617Z" fill="#494949" stroke="#494949"/><path d="M519,617L415,841L524,857Z" fill="#434343" stroke="#434343"/><path d="M519,617L524,857L709,697Z" fill="#363636" stroke="#363636"/><path d="M709,697L524,857L670,858Z" fill="#313131" stroke="#313131"/><path d="M709,697L670,858L853,787Z" fill="#212121" stroke="#212121"/><path d="M709,697L853,787L779,634Z" fill="#1c1c1c" stroke="#1c1c1c"/><path d="M779,634L853,787L992,666Z" fill="#0c0c0c" stroke="#0c0c0c"/><path d="M992,666L853,787L1040,872Z" fill="#000000" stroke="#000000"/><path d="M992,666L1040,872L1169,859Z" fill="#000000" stroke="#000000"/><path d="M992,666L1169,859L1151,619Z" fill="#000000" stroke="#000000"/><path d="M132,892L1040,872L670,858Z" fill="#333333" stroke="#333333"/><path d="M132,892L670,858L524,857Z" fill="#484848" stroke="#484848"/><path d="M132,892L524,857L415,841Z" fill="#545454" stroke="#545454"/><path d="M132,892L415,841L207,847Z" fill="#616161" stroke="#616161"/><path d="M670,858L1040,872L853,787Z" fill="#101010" stroke="#101010"/></g></svg>